<svg width="19" height="19" viewBox="0 0 19 19" fill="none" xmlns="http://www.w3.org/2000/svg">
<path d="M0.849625 3.31483C0.849625 2.73762 1.05233 2.26143 1.45773 1.88626C1.86313 1.51107 2.39017 1.32349 3.03881 1.32349C3.67589 1.32349 4.19132 1.50818 4.58515 1.8776C4.99055 2.25855 5.19325 2.75493 5.19325 3.36678C5.19325 3.92089 4.99635 4.38264 4.60252 4.75206C4.19712 5.13301 3.6643 5.32348 3.00406 5.32348H2.98669C2.34962 5.32348 1.83419 5.13301 1.44036 4.75206C1.04653 4.3711 0.849625 3.89202 0.849625 3.31483ZM1.07549 18.4663V6.89924H4.93264V18.4663H1.07549ZM7.0697 18.4663H10.9268V12.0075C10.9268 11.6034 10.9732 11.2917 11.0658 11.0724C11.228 10.6799 11.4741 10.348 11.8043 10.0767C12.1344 9.80544 12.5485 9.6698 13.0465 9.6698C14.3438 9.6698 14.9925 10.5414 14.9925 12.2845V18.4663H18.8496V11.8343C18.8496 10.1258 18.4442 8.82998 17.6334 7.94686C16.8226 7.06374 15.7512 6.62219 14.4191 6.62219C12.9249 6.62219 11.7608 7.26288 10.9268 8.54426V8.5789H10.9095L10.9268 8.54426V6.89924H7.0697C7.09286 7.26864 7.10445 8.41727 7.10445 10.3451C7.10445 12.273 7.09286 14.98 7.0697 18.4663Z" fill="#FBBA00"/>
</svg>
