<svg width="16" height="16" viewBox="0 0 16 16" fill="none" xmlns="http://www.w3.org/2000/svg">
<path d="M14.915 7.97738C14.9151 9.34594 14.4832 10.6796 13.6809 11.7883C12.8785 12.897 11.7468 13.7242 10.4468 14.152C9.1468 14.5798 7.74496 14.5863 6.44104 14.1707C5.13712 13.7551 3.99764 12.9385 3.185 11.8374L3.99 11.2424C4.72441 12.2398 5.77402 12.9602 6.96884 13.2867C8.16366 13.6133 9.43374 13.527 10.5734 13.0418C11.7131 12.5566 12.6556 11.7009 13.2483 10.6133C13.8411 9.52569 14.0493 8.26983 13.8394 7.04911C13.6294 5.82838 13.0136 4.71426 12.0915 3.88717C11.1695 3.06008 9.99522 2.56844 8.75894 2.49187C7.52266 2.4153 6.29673 2.75829 5.27967 3.46528C4.26261 4.17228 3.51398 5.20189 3.155 6.38738L3.655 6.06238L4.215 6.89238L2.715 7.89238C2.62662 7.95197 2.5215 7.98175 2.415 7.97738C2.3331 7.97751 2.25242 7.95751 2.18006 7.91915C2.1077 7.88079 2.04586 7.82524 2 7.75738L1 6.25738L1.83 5.69738L2.17 6.19738C2.60381 4.69448 3.56505 3.39843 4.87733 2.54707C6.18961 1.6957 7.7649 1.34613 9.31412 1.5625C10.8633 1.77886 12.2826 2.54666 13.3114 3.72499C14.3402 4.90332 14.9096 6.41314 14.915 7.97738ZM7.915 4.47738V7.97738C7.91462 8.04319 7.92723 8.10842 7.95211 8.16934C7.977 8.23026 8.01366 8.28566 8.06 8.33238L9.56 9.83238L10.27 9.12238L8.915 7.77238V4.47738H7.915Z" fill="#FEFCFF"/>
</svg>
