<svg width="19" height="15" viewBox="0 0 19 15" fill="none" xmlns="http://www.w3.org/2000/svg">
<path d="M12.8766 0.0962593V0.0930176H13.7206L14.029 0.15461C14.2346 0.194596 14.4213 0.246997 14.589 0.311831C14.7567 0.376665 14.919 0.452309 15.0759 0.538749C15.2328 0.625188 15.3751 0.713265 15.5028 0.802946C15.6294 0.891557 15.743 0.985566 15.8437 1.08497C15.9432 1.18546 16.0985 1.2114 16.3095 1.16277C16.5205 1.11415 16.7477 1.04661 16.9912 0.960167C17.2346 0.873728 17.4754 0.776478 17.7134 0.668416C17.9515 0.560355 18.0965 0.491744 18.1484 0.462569C18.1993 0.432324 18.2263 0.416116 18.2296 0.413944L18.2328 0.409082L18.2491 0.400977L18.2653 0.392873L18.2815 0.384769L18.2977 0.376665L18.301 0.371802L18.3059 0.368561L18.3107 0.365319L18.314 0.360456L18.3302 0.355594L18.3464 0.352352L18.3432 0.376665L18.3383 0.400977L18.3302 0.42529L18.3221 0.449603L18.314 0.465811L18.3059 0.482019L18.2977 0.506332C18.2923 0.52254 18.2869 0.544146 18.2815 0.571166C18.2761 0.598185 18.2247 0.70623 18.1273 0.895334C18.0299 1.08444 17.9082 1.27623 17.7621 1.47073C17.6161 1.66523 17.4851 1.81218 17.3694 1.9116C17.2525 2.01209 17.1751 2.08232 17.1372 2.12231C17.0994 2.16337 17.0534 2.20118 16.9993 2.23577L16.9181 2.28926L16.9019 2.29736L16.8857 2.30547L16.8824 2.31033L16.8775 2.31357L16.8727 2.31681L16.8694 2.32167L16.8532 2.32978L16.837 2.33788L16.8337 2.34274L16.8289 2.34599L16.824 2.34923L16.8207 2.35409L16.8175 2.35895L16.8126 2.36219L16.8078 2.36544L16.8045 2.3703H16.8857L17.3401 2.27305C17.6431 2.20821 17.9326 2.12988 18.2085 2.03803L18.6467 1.89215L18.6954 1.87594L18.7197 1.86784L18.736 1.85973L18.7522 1.85163L18.7684 1.84353L18.7847 1.83542L18.8171 1.83056L18.8496 1.82732V1.85973L18.8415 1.86298L18.8334 1.86784L18.8301 1.8727L18.8252 1.87594L18.8204 1.87918L18.8171 1.88405L18.8139 1.88891L18.809 1.89215L18.8041 1.89539L18.8009 1.90026L18.7977 1.90512L18.7928 1.90836L18.7847 1.92457L18.7766 1.94078L18.7717 1.94402C18.7695 1.94726 18.7008 2.0391 18.5656 2.21956C18.4303 2.40109 18.3573 2.49293 18.3464 2.4951C18.3356 2.49835 18.3205 2.51455 18.301 2.54373C18.2826 2.57397 18.1679 2.69447 17.9569 2.90518C17.7459 3.11589 17.5392 3.30335 17.3369 3.46761C17.1335 3.63293 17.0307 3.83607 17.0285 4.07704C17.0253 4.31693 17.0128 4.58816 16.9912 4.89071C16.9695 5.19327 16.9289 5.52013 16.8694 5.87132C16.8099 6.2225 16.7179 6.61961 16.5935 7.06263C16.4691 7.50566 16.3176 7.93789 16.139 8.35931C15.9605 8.78072 15.7739 9.15892 15.5791 9.49389C15.3843 9.82887 15.2058 10.1125 15.0435 10.3448C14.8812 10.5772 14.7162 10.796 14.5484 11.0013C14.3807 11.2066 14.1686 11.4378 13.9122 11.695C13.6547 11.9511 13.514 12.0916 13.4902 12.1164C13.4653 12.1402 13.3593 12.2288 13.172 12.3822C12.9859 12.5367 12.7858 12.6913 12.5715 12.8458C12.3583 12.9992 12.1625 13.1273 11.9839 13.2299C11.8054 13.3326 11.5901 13.4498 11.338 13.5817C11.0869 13.7146 10.8153 13.8377 10.5232 13.9512C10.231 14.0647 9.92263 14.17 9.59802 14.2673C9.2734 14.3645 8.95961 14.4402 8.65663 14.4942C8.35366 14.5482 8.0101 14.5941 7.62597 14.632L7.04977 14.6887V14.6968H5.99477V14.6887L5.85681 14.6806C5.76484 14.6752 5.68909 14.6698 5.62958 14.6644C5.57007 14.659 5.34554 14.6293 4.956 14.5752C4.56646 14.5212 4.26078 14.4672 4.03895 14.4131C3.81714 14.3591 3.48711 14.2565 3.04887 14.1052C2.61064 13.9539 2.23571 13.801 1.92408 13.6465C1.61353 13.493 1.41876 13.3958 1.33977 13.3547C1.26186 13.3148 1.17421 13.2651 1.07683 13.2056L0.930748 13.1165L0.927518 13.1116L0.922633 13.1084L0.917764 13.1051L0.914517 13.1003L0.898287 13.0922L0.882056 13.0841L0.878826 13.0792L0.87394 13.076L0.869071 13.0727L0.865825 13.0678L0.862595 13.063L0.85771 13.0597H0.849594V13.0273L0.865825 13.0306L0.882056 13.0354L0.955095 13.0435C1.00379 13.0489 1.13634 13.057 1.35275 13.0678C1.56917 13.0787 1.7991 13.0787 2.04256 13.0678C2.28602 13.057 2.53491 13.0327 2.78918 12.9949C3.04347 12.9571 3.34374 12.8923 3.68999 12.8004C4.03626 12.7086 4.35438 12.5994 4.64438 12.473C4.93329 12.3455 5.13887 12.2504 5.26115 12.1877C5.38233 12.1261 5.56736 12.0116 5.81623 11.8441L6.18954 11.5929L6.19279 11.588L6.19766 11.5848L6.20254 11.5815L6.20577 11.5767L6.20902 11.5718L6.21389 11.5686L6.21877 11.5653L6.222 11.5605L6.23823 11.5556L6.25446 11.5524L6.25771 11.5362L6.26258 11.5199L6.26746 11.5167L6.27069 11.5118L6.14085 11.5037C6.05429 11.4983 5.97042 11.4929 5.88927 11.4875C5.80812 11.4821 5.68098 11.4578 5.50784 11.4146C5.33473 11.3714 5.14807 11.3065 4.94788 11.2201C4.74771 11.1337 4.55294 11.031 4.36357 10.9121C4.17422 10.7933 4.03733 10.6944 3.95293 10.6155C3.86962 10.5377 3.76141 10.4275 3.62831 10.2849C3.49631 10.1412 3.3816 9.99365 3.28422 9.84237C3.18683 9.6911 3.09378 9.51657 3.00507 9.31884L2.87033 9.02385L2.86222 8.99954L2.8541 8.97523L2.84923 8.95902L2.84599 8.94281L2.87033 8.94605L2.89468 8.95091L3.07322 8.97523C3.19226 8.99143 3.37891 8.99683 3.63318 8.99143C3.88747 8.98604 4.0633 8.97523 4.16069 8.95902C4.25807 8.94281 4.31759 8.932 4.33922 8.9266L4.37169 8.9185L4.41226 8.91039L4.45284 8.90229L4.45609 8.89743L4.46096 8.89418L4.46584 8.89094L4.46907 8.88608L4.43661 8.87797L4.40415 8.86987L4.37169 8.86177L4.33922 8.85366L4.30676 8.84556C4.28513 8.84016 4.24726 8.82935 4.19315 8.81314C4.13905 8.79693 3.99297 8.7375 3.75491 8.63485C3.51687 8.5322 3.32751 8.43224 3.18683 8.33499C3.04581 8.23746 2.91135 8.1308 2.78431 8.01569C2.65771 7.89899 2.51868 7.74878 2.36718 7.56509C2.2157 7.3814 2.08044 7.16799 1.96141 6.92486C1.84239 6.68174 1.75312 6.44942 1.6936 6.2279C1.63432 6.00768 1.59521 5.78254 1.57675 5.55525L1.54752 5.21487L1.56375 5.21812L1.57998 5.22298L1.59621 5.23108L1.61244 5.23919L1.62867 5.24729L1.64491 5.2554L1.89648 5.36885C2.06421 5.4445 2.2725 5.50933 2.52137 5.56336C2.77025 5.61738 2.91903 5.6471 2.96772 5.6525L3.04076 5.66061H3.18683L3.1836 5.65574L3.17872 5.6525L3.17385 5.64926L3.1706 5.6444L3.16737 5.63953L3.16249 5.63629L3.15762 5.63305L3.15437 5.62819L3.13814 5.62008L3.12191 5.61198L3.11868 5.60712L3.1138 5.60388L3.10893 5.60063L3.10568 5.59577L3.08945 5.58767L3.07322 5.57956L3.06999 5.5747C3.06674 5.57253 3.02021 5.53796 2.93039 5.47097C2.84165 5.40289 2.7486 5.31483 2.65122 5.20677C2.55383 5.09871 2.45645 4.98525 2.35906 4.86639C2.2615 4.74727 2.1746 4.61981 2.09937 4.4855C2.02364 4.35043 1.94355 4.17861 1.85915 3.97007C1.77584 3.7626 1.71254 3.55351 1.66925 3.3428C1.62598 3.13209 1.60163 2.92409 1.59621 2.71878C1.59081 2.51347 1.59621 2.33788 1.61244 2.19201C1.62867 2.04613 1.66114 1.88134 1.70983 1.69765C1.75852 1.51396 1.82887 1.31946 1.92083 1.11415L2.05879 0.806188L2.06691 0.781875L2.07502 0.757562L2.07991 0.754321L2.08314 0.749458L2.08638 0.744596L2.09125 0.741354L2.09614 0.744596L2.09937 0.749458L2.10261 0.754321L2.10748 0.757562L2.11237 0.760804L2.1156 0.765667L2.11885 0.770529L2.12371 0.773771L2.13183 0.789979L2.13995 0.806188L2.14483 0.809429L2.14806 0.814292L2.36718 1.05742C2.51326 1.2195 2.68639 1.4005 2.88656 1.6004C3.08676 1.8003 3.19766 1.90403 3.2193 1.9116C3.24095 1.92024 3.26799 1.94509 3.30045 1.98616C3.33291 2.02615 3.44112 2.12178 3.62507 2.27305C3.80903 2.42432 4.04978 2.59992 4.34734 2.79982C4.64492 2.99972 4.97494 3.19693 5.33742 3.39143C5.69992 3.58593 6.08946 3.76152 6.50604 3.9182C6.92264 4.07489 7.21479 4.17754 7.38251 4.22616C7.55024 4.27479 7.83697 4.33691 8.24274 4.41256C8.64851 4.4882 8.9542 4.53683 9.15978 4.55843C9.36538 4.58004 9.50605 4.59247 9.58179 4.59571L9.6954 4.59896L9.69217 4.57464L9.68729 4.55033L9.65482 4.34772C9.63319 4.21266 9.62236 4.02356 9.62236 3.78043C9.62236 3.5373 9.6413 3.31309 9.67917 3.10778C9.71705 2.90247 9.77386 2.69447 9.84959 2.48376C9.92534 2.27305 9.99947 2.10393 10.072 1.97643C10.1455 1.85001 10.2418 1.70575 10.3609 1.54367C10.4799 1.38159 10.6341 1.2141 10.8234 1.04121C11.0128 0.868314 11.2292 0.714334 11.4727 0.57927C11.7161 0.444205 11.9407 0.341541 12.1463 0.27131C12.3519 0.201079 12.525 0.155144 12.6656 0.133539C12.8063 0.111933 12.8766 0.0995009 12.8766 0.0962593Z" fill="#FBBA00"/>
</svg>
